<?xml version="1.0" encoding="UTF-8"?>
<svg width="562px" height="556px" viewBox="0 0 562 556" version="1.1" xmlns="http://www.w3.org/2000/svg" xmlns:xlink="http://www.w3.org/1999/xlink">
    <title>img_Texture</title>
    <g id="2.0" stroke="none" stroke-width="1" fill="none" fill-rule="evenodd">
        <g id="home_1920" transform="translate(-679.000000, -754.000000)">
            <g id="img_Texture" transform="translate(679.500000, 754.000000)">
                <path d="M337.489002,344.291032 C395.950819,344.291032 443.343486,391.683699 443.343486,450.145516 C443.343486,508.607333 395.950819,556 337.489002,556 C279.027185,556 231.634518,508.607333 231.634518,450.145516 C231.634518,391.683699 279.027185,344.291032 337.489002,344.291032 Z M337.489002,409.671743 C315.135954,409.671743 297.015228,427.792468 297.015228,450.145516 C297.015228,472.498564 315.135954,490.619289 337.489002,490.619289 C359.842049,490.619289 377.962775,472.498564 377.962775,450.145516 C377.962775,427.792468 359.842049,409.671743 337.489002,409.671743 Z" id="形状结合" fill="#1C5BED"></path>
                <path d="M405.073604,24.8595601 C486.576255,24.8595601 552.647208,90.9305131 552.647208,172.433164 C552.647208,253.935815 486.576255,320.006768 405.073604,320.006768 C323.570953,320.006768 257.5,253.935815 257.5,172.433164 C257.5,90.9305131 323.570953,24.8595601 405.073604,24.8595601 Z M405.696277,117.015228 C374.745904,117.015228 349.655668,142.105464 349.655668,173.055838 C349.655668,204.006211 374.745904,229.096447 405.696277,229.096447 C436.646651,229.096447 461.736887,204.006211 461.736887,173.055838 C461.736887,142.105464 436.646651,117.015228 405.696277,117.015228 Z" id="形状结合" fill="#1C5BED"></path>
                <path d="M102.490694,229.71912 L117.062606,229.71912 L117.062606,229.71912 L117.062606,344.291032 L2.49069374,344.291032 L2.49069374,329.71912 C2.49069374,274.490645 47.2622188,229.71912 102.490694,229.71912 Z" id="矩形" fill="#2B68F5" transform="translate(59.776650, 287.005076) scale(1, -1) translate(-59.776650, -287.005076) "></path>
                <path d="M100,344.291032 L114.571912,344.291032 L114.571912,344.291032 L114.571912,458.862944 L0,458.862944 L0,444.291032 C-2.09743922e-14,389.062557 44.771525,344.291032 100,344.291032 Z" id="矩形" fill="#2B67F3"></path>
                <path d="M100,0.575296108 L114.571912,0.575296108 L114.571912,0.575296108 L114.571912,115.147208 L0,115.147208 L0,100.575296 C-2.09743922e-14,45.3468211 44.771525,0.575296108 100,0.575296108 Z" id="矩形" fill="#266DFF" transform="translate(57.285956, 57.861252) scale(1, -1) translate(-57.285956, -57.861252) "></path>
                <path d="M2.49069374,115.147208 L117.062606,115.147208 L117.062606,129.71912 C117.062606,184.947595 72.2910807,229.71912 17.0626058,229.71912 L2.49069374,229.71912 L2.49069374,229.71912 L2.49069374,115.147208 Z" id="矩形" fill="#1C5BED" transform="translate(59.776650, 172.433164) scale(1, -1) translate(-59.776650, -172.433164) "></path>
                <path d="M445.834179,344.291032 L560.406091,344.291032 L560.406091,358.862944 C560.406091,414.091419 515.634566,458.862944 460.406091,458.862944 L445.834179,458.862944 L445.834179,458.862944 L445.834179,344.291032 Z" id="矩形" fill="#1C5BED" transform="translate(503.120135, 401.576988) scale(-1, -1) translate(-503.120135, -401.576988) "></path>
                <polygon id="矩形" fill="#1C5BED" transform="translate(174.348562, 287.005076) scale(-1, -1) translate(-174.348562, -287.005076) " points="231.634518 229.71912 231.634518 344.291032 117.062606 344.291032"></polygon>
                <path d="M214.571912,344.291032 L229.143824,344.291032 L229.143824,344.291032 L229.143824,458.862944 L114.571912,458.862944 L114.571912,444.291032 C114.571912,389.062557 159.343437,344.291032 214.571912,344.291032 Z" id="矩形" fill="#1B5EE8" transform="translate(171.857868, 401.576988) scale(-1, 1) translate(-171.857868, -401.576988) "></path>
                <path d="M214.571912,115.147208 L229.143824,115.147208 L229.143824,115.147208 L229.143824,229.71912 L114.571912,229.71912 L114.571912,215.147208 C114.571912,159.918733 159.343437,115.147208 214.571912,115.147208 Z" id="矩形" fill="#2B68F5" transform="translate(171.857868, 172.433164) scale(-1, 1) translate(-171.857868, -172.433164) "></path>
                <circle id="椭圆形" fill="#1C5BED" cx="171.857868" cy="57.8612521" r="57.285956"></circle>
            </g>
        </g>
    </g>
</svg>