<?xml version="1.0" encoding="UTF-8"?>
<svg width="750px" height="860px" viewBox="0 0 750 860" version="1.1" xmlns="http://www.w3.org/2000/svg" xmlns:xlink="http://www.w3.org/1999/xlink">
    <title>img_BG</title>
    <defs>
        <rect id="path-1" x="0" y="0" width="398.84214" height="116.088328"></rect>
    </defs>
    <g id="2.0" stroke="none" stroke-width="1" fill="none" fill-rule="evenodd">
        <g id="首页_移动端适配_1" transform="translate(0.000000, -98.000000)">
            <g id="img_BG" transform="translate(0.000000, 98.000000)">
                <rect id="矩形" stroke="#979797" fill="#0E1937" x="0.5" y="0.5" width="749" height="859"></rect>
                <path d="M516.5,102.016295 L516.5,102.016295 L516.5,102.016295 L516.5,190.016295 L428.5,190.016295 C428.5,141.415237 467.898942,102.016295 516.5,102.016295 Z" id="home_sector" fill="#007AFF" transform="translate(472.500000, 146.016295) scale(1, -1) rotate(157.000000) translate(-472.500000, -146.016295) "></path>
                <polygon id="home_triangle" fill="#F9B7C1" transform="translate(90.000000, 595.000000) rotate(-315.000000) translate(-90.000000, -595.000000) " points="90 545 140 645 40 645"></polygon>
                <circle id="home_round" fill="#19C184" cx="666" cy="576.5" r="49"></circle>
                <g id="img_Texture" transform="translate(175.000000, 743.000000)">
                    <mask id="mask-2" fill="white">
                        <use xlink:href="#path-1"></use>
                    </mask>
                    <use id="蒙版" fill="#D8D8D8" opacity="0" xlink:href="#path-1"></use>
                    <g id="编组-6" mask="url(#mask-2)">
                        <path d="M292.339165,17.9409938 C351.159134,17.9409938 398.84214,65.6240001 398.84214,124.443969 C398.84214,183.263938 351.159134,230.946945 292.339165,230.946945 C233.519195,230.946945 185.836189,183.263938 185.836189,124.443969 C185.836189,65.6240001 233.519195,17.9409938 292.339165,17.9409938 Z M292.788544,84.449181 C270.451847,84.449181 252.344376,102.556652 252.344376,124.893349 C252.344376,147.230046 270.451847,165.337517 292.788544,165.337517 C315.125241,165.337517 333.232712,147.230046 333.232712,124.893349 C333.232712,102.556652 315.125241,84.449181 292.788544,84.449181 Z" id="形状结合" fill="#1C5BED"></path>
                        <path d="M82.6858544,0.415187714 L82.6858544,0.415187714 L82.6858544,0.415187714 L82.6858544,83.1010421 L0,83.1010421 C-5.59248878e-15,37.4349057 37.019718,0.415187714 82.6858544,0.415187714 Z" id="矩形" fill="#266DFF" transform="translate(41.342927, 41.758115) scale(1, -1) translate(-41.342927, -41.758115) "></path>
                        <path d="M1.79751857,83.1010421 L84.483373,83.1010421 C84.483373,128.767179 47.463655,165.786896 1.79751857,165.786896 L1.79751857,165.786896 L1.79751857,165.786896 L1.79751857,83.1010421 Z" id="矩形" fill="#1C5BED" transform="translate(43.140446, 124.443969) scale(1, -1) translate(-43.140446, -124.443969) "></path>
                        <path d="M165.371709,83.1010421 L165.371709,83.1010421 L165.371709,83.1010421 L165.371709,165.786896 L82.6858544,165.786896 C82.6858544,120.12076 119.705572,83.1010421 165.371709,83.1010421 Z" id="矩形" fill="#2B68F5" transform="translate(124.028782, 124.443969) scale(-1, 1) translate(-124.028782, -124.443969) "></path>
                        <circle id="椭圆形" fill="#1C5BED" cx="124.028782" cy="41.7581149" r="41.3429272"></circle>
                    </g>
                </g>
            </g>
        </g>
    </g>
</svg>