<?xml version="1.0" encoding="UTF-8"?>
<svg width="540px" height="116px" viewBox="0 0 540 116" version="1.1" xmlns="http://www.w3.org/2000/svg" xmlns:xlink="http://www.w3.org/1999/xlink">
    <title>title_home</title>
    <g id="2.0" stroke="none" stroke-width="1" fill="none" fill-rule="evenodd">
        <g id="首页_移动端适配_2_滑动" transform="translate(-105.000000, -342.000000)" fill="#FFFFFF" fill-rule="nonzero">
            <g id="title_home" transform="translate(105.000000, 342.500000)">
                <path d="M21.3411982,38.9861751 L31.1623963,13.3979724 L40.8774194,38.9861751 L47.4602765,38.9861751 L61.3692166,0.763133641 L53.1937327,0.763133641 L44.275023,28.1032258 L34.1883871,0.763133641 L28.7734562,0.763133641 L18.47447,28.2094009 L9.60884793,0.763133641 L0.796313364,0.763133641 L14.758341,38.9861751 L21.3411982,38.9861751 Z M73.8978802,39.6763134 C76.7292171,39.6763134 79.2154833,38.9950233 81.356682,37.6324424 C83.4978807,36.2698623 85.0639621,34.4737327 86.0549309,32.2440553 C86.2672811,31.7485717 86.4265438,31.2884793 86.5327189,30.8637788 C86.638894,30.4390783 86.7450691,29.7843321 86.8512442,28.8995392 L80.3214747,28.8995392 C79.861383,30.3152076 79.0916134,31.4035026 78.0121659,32.164424 C76.9327184,32.9253462 75.6497696,33.3058065 74.163318,33.3058065 C72.2521659,33.3058065 70.6772348,32.6864522 69.4385253,31.4477419 C68.1998159,30.2090366 67.4388937,28.4925392 67.1557604,26.2982488 L87.0105069,26.2982488 C87.0812892,26.0151155 87.116682,25.555023 87.116682,24.9179724 L87.116682,23.9093088 C87.116682,21.3257148 86.6035012,18.9456221 85.5771429,16.7690323 C84.5508088,14.5924424 83.020117,12.8494004 80.9850691,11.5399078 C78.9500455,10.2304137 76.4991705,9.5756682 73.6324424,9.5756682 C70.8718894,9.5756682 68.4210136,10.2215679 66.2798157,11.5133641 C64.1386178,12.8051618 62.4752079,14.583595 61.2895853,16.8486636 C60.1039642,19.1137322 59.5111521,21.6619349 59.5111521,24.4932719 C59.5111521,27.5015671 60.0951152,30.1470968 61.2630415,32.4298618 C62.4309677,34.7126267 64.1032258,36.4910599 66.2798157,37.7651613 C68.4563999,39.0392627 70.9957544,39.6763134 73.8978802,39.6763134 Z M79.684424,21.838894 L67.2088479,21.838894 C67.5627652,19.9631331 68.2971429,18.4766815 69.4119816,17.3795392 C70.5268203,16.2823969 71.9159442,15.7338249 73.5793548,15.7338249 C75.3135478,15.7338249 76.7469119,16.317788 77.879447,17.4857143 C79.0119821,18.6536406 79.61364,20.104701 79.684424,21.838894 Z M99.2737327,38.9861751 L99.2737327,3.41751152 L91.7352995,0.763133641 L91.7352995,38.9861751 L99.2737327,38.9861751 Z M118.491429,39.6763134 C120.685715,39.6763134 122.667649,39.2870049 124.437235,38.5083871 L124.437235,31.7662673 C122.632258,32.6156682 120.756497,33.0403687 118.809954,33.0403687 C116.261751,33.0403687 114.209032,32.2529027 112.651797,30.6779724 C111.094562,29.1030412 110.315945,27.0414747 110.315945,24.4932719 C110.315945,22.0512442 111.050322,20.0604608 112.519078,18.5209217 C113.987834,16.9813825 115.960922,16.2116129 118.438341,16.2116129 C120.774194,16.2116129 122.738433,16.7424885 124.33106,17.8042396 L124.33106,10.8497696 C122.561494,10.0003687 120.579558,9.5756682 118.385253,9.5756682 C115.306175,9.5756682 112.581014,10.2215679 110.20977,11.5133641 C107.838525,12.8051618 106.007004,14.583595 104.715207,16.8486636 C103.42341,19.1137322 102.777512,21.6796313 102.777512,24.5463594 C102.777512,27.4484795 103.441106,30.0497699 104.768295,32.3502304 C106.095484,34.650691 107.953548,36.4468197 110.342488,37.7386175 C112.731429,39.0304145 115.447741,39.6763134 118.491429,39.6763134 Z M140.735115,39.6763134 C143.672627,39.6763134 146.291612,39.0215671 148.592074,37.7120737 C150.892535,36.4025812 152.688665,34.6064516 153.980461,32.3236866 C155.272257,30.0409217 155.918157,27.4661751 155.918157,24.599447 C155.918157,21.7681101 155.272257,19.2110599 153.980461,16.9282949 C152.688665,14.64553 150.892535,12.8494004 148.592074,11.5399078 C146.291632,10.2304137 143.672645,9.5756682 140.735115,9.5756682 C137.832995,9.5756682 135.231705,10.2304137 132.931244,11.5399078 C130.630784,12.8494004 128.834655,14.64553 127.542857,16.9282949 C126.25106,19.2110599 125.605161,21.7681101 125.605161,24.599447 C125.605161,27.4661751 126.25106,30.0409217 127.542857,32.3236866 C128.834655,34.6064516 130.630784,36.4025812 132.931244,37.7120737 C135.231705,39.0215671 137.832995,39.6763134 140.735115,39.6763134 Z M140.735115,32.9872811 C138.54083,32.9872811 136.727005,32.1998151 135.293641,30.6248848 C133.860276,29.0499536 133.143594,27.0414747 133.143594,24.599447 C133.143594,22.1574194 133.860276,20.1489396 135.293641,18.5740092 C136.727005,16.9990789 138.54083,16.2116129 140.735115,16.2116129 C142.929401,16.2116129 144.743226,16.9902299 146.17659,18.5474654 C147.609954,20.104701 148.326636,22.1220282 148.326636,24.599447 C148.326636,26.1920737 147.999263,27.6254378 147.344516,28.8995392 C146.689769,30.1736406 145.787281,31.173456 144.637051,31.8989862 C143.486821,32.6245156 142.186176,32.9872811 140.735115,32.9872811 Z M165.580092,38.9861751 L165.580092,24.3340092 C165.580092,21.7150225 166.05788,19.7065443 167.013456,18.3085714 C167.969032,16.9105985 169.384701,16.2116129 171.260461,16.2116129 C174.870415,16.2116129 176.675392,18.7598157 176.675392,23.8562212 L176.675392,38.9861751 L184.266912,38.9861751 L184.266912,23.9623963 C184.302305,21.4849775 184.788939,19.5738254 185.72682,18.2289401 C186.664702,16.8840548 188.053824,16.2116129 189.894194,16.2116129 C191.805346,16.2116129 193.194471,16.9017512 194.061567,18.2820276 C194.928663,19.6623041 195.362212,21.5203687 195.362212,23.8562212 L195.362212,38.9861751 L202.900645,38.9861751 L202.900645,21.5734562 C202.900645,17.8927184 201.980462,14.9729027 200.140092,12.8140092 C198.299722,10.6551141 195.609952,9.5756682 192.070783,9.5756682 C189.947281,9.5756682 188.106911,9.99151966 186.549677,10.8232258 C184.992443,11.6548801 183.753732,12.8493502 182.833548,14.4066359 L182.674286,14.4066359 C180.9047,11.1859897 178.037972,9.5756682 174.074101,9.5756682 C172.056774,9.5756682 170.36682,9.94728111 169.00424,10.6905069 C167.641669,11.4337327 166.517982,12.5485714 165.63318,14.035023 L165.473917,14.035023 L165.473917,10.2658065 L158.041659,10.2658065 L158.041659,38.9861751 L165.580092,38.9861751 Z M221.003502,39.6763134 C223.834839,39.6763134 226.321105,38.9950233 228.462304,37.6324424 C230.603503,36.2698623 232.169584,34.4737327 233.160553,32.2440553 C233.372903,31.7485717 233.532166,31.2884793 233.638341,30.8637788 C233.744516,30.4390783 233.850691,29.7843321 233.956866,28.8995392 L227.427097,28.8995392 C226.967005,30.3152076 226.197236,31.4035026 225.117788,32.164424 C224.03834,32.9253462 222.755392,33.3058065 221.26894,33.3058065 C219.357788,33.3058065 217.782857,32.6864522 216.544147,31.4477419 C215.305438,30.2090366 214.544516,28.4925392 214.261382,26.2982488 L234.116129,26.2982488 C234.186911,26.0151155 234.222304,25.555023 234.222304,24.9179724 L234.222304,23.9093088 C234.222304,21.3257148 233.709123,18.9456221 232.682765,16.7690323 C231.656431,14.5924424 230.125739,12.8494004 228.090691,11.5399078 C226.055668,10.2304137 223.604793,9.5756682 220.738065,9.5756682 C217.977512,9.5756682 215.526636,10.2215679 213.385438,11.5133641 C211.24424,12.8051618 209.58083,14.583595 208.395207,16.8486636 C207.209586,19.1137322 206.616774,21.6619349 206.616774,24.4932719 C206.616774,27.5015671 207.200737,30.1470968 208.368664,32.4298618 C209.53659,34.7126267 211.208848,36.4910599 213.385438,37.7651613 C215.562022,39.0392627 218.101377,39.6763134 221.003502,39.6763134 Z M226.790046,21.838894 L214.31447,21.838894 C214.668387,19.9631331 215.402765,18.4766815 216.517604,17.3795392 C217.632442,16.2823969 219.021566,15.7338249 220.684977,15.7338249 C222.41917,15.7338249 223.852534,16.317788 224.985069,17.4857143 C226.117604,18.6536406 226.719262,20.104701 226.790046,21.838894 Z M270.374931,38.9861751 L270.374931,16.2116129 L276.26765,16.2116129 L276.26765,10.2658065 L270.374931,10.2658065 L270.374931,3.04589862 L262.78341,0.391520737 L262.78341,10.2658065 L260.39447,10.2658065 L258.270968,16.2116129 L262.78341,16.2116129 L262.78341,38.9861751 L270.374931,38.9861751 Z M291.928479,39.6763134 C294.865991,39.6763134 297.484976,39.0215671 299.785438,37.7120737 C302.085899,36.4025812 303.882029,34.6064516 305.173825,32.3236866 C306.465621,30.0409217 307.111521,27.4661751 307.111521,24.599447 C307.111521,21.7681101 306.465621,19.2110599 305.173825,16.9282949 C303.882029,14.64553 302.085899,12.8494004 299.785438,11.5399078 C297.484996,10.2304137 294.866009,9.5756682 291.928479,9.5756682 C289.026359,9.5756682 286.425069,10.2304137 284.124608,11.5399078 C281.824148,12.8494004 280.028019,14.64553 278.736221,16.9282949 C277.444424,19.2110599 276.798525,21.7681101 276.798525,24.599447 C276.798525,27.4661751 277.444424,30.0409217 278.736221,32.3236866 C280.028019,34.6064516 281.824148,36.4025812 284.124608,37.7120737 C286.425069,39.0215671 289.026359,39.6763134 291.928479,39.6763134 Z M291.928479,32.9872811 C289.734194,32.9872811 287.920369,32.1998151 286.487005,30.6248848 C285.053641,29.0499536 284.336959,27.0414747 284.336959,24.599447 C284.336959,22.1574194 285.053641,20.1489396 286.487005,18.5740092 C287.920369,16.9990789 289.734194,16.2116129 291.928479,16.2116129 C294.122766,16.2116129 295.93659,16.9902299 297.369954,18.5474654 C298.803318,20.104701 299.52,22.1220282 299.52,24.599447 C299.52,26.1920737 299.192627,27.6254378 298.53788,28.8995392 C297.883133,30.1736406 296.980645,31.173456 295.830415,31.8989862 C294.680185,32.6245156 293.37954,32.9872811 291.928479,32.9872811 Z M340.662857,38.9861751 L340.662857,24.599447 C340.662857,21.909678 341.193733,19.8392632 342.255484,18.3882028 C343.317235,16.9371423 344.892165,16.2116129 346.980276,16.2116129 C349.068388,16.2116129 350.607927,16.9282949 351.598894,18.361659 C352.589861,19.795023 353.085346,21.6796313 353.085346,24.0154839 L353.085346,38.9861751 L360.623779,38.9861751 L360.623779,21.5734562 C360.623779,17.9281111 359.668203,15.0171429 357.757051,12.840553 C355.845899,10.6639631 353.120737,9.5756682 349.581567,9.5756682 C347.493456,9.5756682 345.732719,9.94728111 344.299355,10.6905069 C342.865991,11.4337327 341.671521,12.5485714 340.715945,14.035023 L340.556682,14.035023 L340.556682,10.2658065 L333.124424,10.2658065 L333.124424,38.9861751 L340.662857,38.9861751 Z M379.098249,39.6763134 C381.929586,39.6763134 384.415852,38.9950233 386.557051,37.6324424 C388.698249,36.2698623 390.264331,34.4737327 391.2553,32.2440553 C391.46765,31.7485717 391.626912,31.2884793 391.733088,30.8637788 C391.839263,30.4390783 391.945438,29.7843321 392.051613,28.8995392 L385.521843,28.8995392 C385.061752,30.3152076 384.291982,31.4035026 383.212535,32.164424 C382.133087,32.9253462 380.850138,33.3058065 379.363687,33.3058065 C377.452535,33.3058065 375.877603,32.6864522 374.638894,31.4477419 C373.400185,30.2090366 372.639262,28.4925392 372.356129,26.2982488 L392.210876,26.2982488 C392.281658,26.0151155 392.317051,25.555023 392.317051,24.9179724 L392.317051,23.9093088 C392.317051,21.3257148 391.80387,18.9456221 390.777512,16.7690323 C389.751177,14.5924424 388.220486,12.8494004 386.185438,11.5399078 C384.150414,10.2304137 381.699539,9.5756682 378.832811,9.5756682 C376.072258,9.5756682 373.621382,10.2215679 371.480184,11.5133641 C369.338986,12.8051618 367.675577,14.583595 366.489954,16.8486636 C365.304333,19.1137322 364.711521,21.6619349 364.711521,24.4932719 C364.711521,27.5015671 365.295484,30.1470968 366.46341,32.4298618 C367.631336,34.7126267 369.303594,36.4910599 371.480184,37.7651613 C373.656769,39.0392627 376.196123,39.6763134 379.098249,39.6763134 Z M384.884793,21.838894 L372.409217,21.838894 C372.763134,19.9631331 373.497512,18.4766815 374.61235,17.3795392 C375.727189,16.2823969 377.116313,15.7338249 378.779724,15.7338249 C380.513917,15.7338249 381.947281,16.317788 383.079816,17.4857143 C384.212351,18.6536406 384.814009,20.104701 384.884793,21.838894 Z M408.668018,38.9861751 L416.418802,19.3437788 L424.222673,38.9861751 L429.584516,38.9861751 L439.618065,10.2658065 L432.345069,10.2658065 L426.6647,28.7402765 L419.444793,10.2658065 L414.189124,10.2658065 L406.916129,28.7402765 L401.341935,10.2658065 L393.325714,10.2658065 L403.306175,38.9861751 L408.668018,38.9861751 Z M472.691613,39.6763134 C475.52295,39.6763134 478.009216,38.9950233 480.150415,37.6324424 C482.291613,36.2698623 483.857695,34.4737327 484.848664,32.2440553 C485.061014,31.7485717 485.220276,31.2884793 485.326452,30.8637788 C485.432627,30.4390783 485.538802,29.7843321 485.644977,28.8995392 L479.115207,28.8995392 C478.655116,30.3152076 477.885346,31.4035026 476.805899,32.164424 C475.726451,32.9253462 474.443502,33.3058065 472.957051,33.3058065 C471.045899,33.3058065 469.470967,32.6864522 468.232258,31.4477419 C466.993549,30.2090366 466.232626,28.4925392 465.949493,26.2982488 L485.80424,26.2982488 C485.875022,26.0151155 485.910415,25.555023 485.910415,24.9179724 L485.910415,23.9093088 C485.910415,21.3257148 485.397234,18.9456221 484.370876,16.7690323 C483.344542,14.5924424 481.81385,12.8494004 479.778802,11.5399078 C477.743778,10.2304137 475.292903,9.5756682 472.426175,9.5756682 C469.665622,9.5756682 467.214746,10.2215679 465.073548,11.5133641 C462.932351,12.8051618 461.268941,14.583595 460.083318,16.8486636 C458.897697,19.1137322 458.304885,21.6619349 458.304885,24.4932719 C458.304885,27.5015671 458.888848,30.1470968 460.056774,32.4298618 C461.2247,34.7126267 462.896959,36.4910599 465.073548,37.7651613 C467.250133,39.0392627 469.789487,39.6763134 472.691613,39.6763134 Z M478.478157,21.838894 L466.002581,21.838894 C466.356498,19.9631331 467.090876,18.4766815 468.205714,17.3795392 C469.320553,16.2823969 470.709677,15.7338249 472.373088,15.7338249 C474.107281,15.7338249 475.540645,16.317788 476.67318,17.4857143 C477.805715,18.6536406 478.407373,20.104701 478.478157,21.838894 Z M496.634101,38.9861751 L496.634101,26.0858986 C496.634101,22.8298612 497.368479,20.5559452 498.837235,19.2641475 C500.305991,17.9723497 502.632995,17.3264516 505.818249,17.3264516 L506.720737,15.4683871 C507.003872,14.9021204 507.366635,14.2385259 507.809032,13.4776037 C508.251429,12.7166815 508.596498,12.1769585 508.84424,11.8584332 L510.171429,10.1596313 L505.818249,10.1065438 C503.55318,10.071151 501.686267,10.4162201 500.217512,11.1417512 C498.748755,11.8672806 497.571981,13.0440558 496.687189,14.6720737 L496.527926,14.6720737 L496.527926,10.2658065 L489.095668,10.2658065 L489.095668,38.9861751 L496.634101,38.9861751 Z M523.230968,39.6763134 C525.248295,39.6763134 526.982488,39.2693085 528.433548,38.4552995 C529.884609,37.6412906 531.15871,36.3848848 532.255853,34.6860829 L532.415115,34.6860829 L532.415115,38.9861751 L539.900461,38.9861751 L539.900461,10.2658065 L532.30894,10.2658065 L532.30894,14.035023 L532.149677,14.035023 C531.194101,12.5839626 529.946544,11.4779713 528.407005,10.7170507 C526.867465,9.95613011 525.14212,9.5756682 523.230968,9.5756682 C520.718157,9.5756682 518.417696,10.2038699 516.329585,11.4602765 C514.241475,12.7166815 512.59576,14.4774199 511.392442,16.7424885 C510.189124,19.0075571 509.587465,21.6265438 509.587465,24.599447 C509.587465,27.5369583 510.206821,30.155945 511.44553,32.4564055 C512.68424,34.7568661 514.338802,36.5353001 516.409217,37.7917051 C518.479631,39.0481109 520.753548,39.6763134 523.230968,39.6763134 Z M524.717419,33.0403687 C523.266359,33.0403687 521.965714,32.6776031 520.815484,31.9520737 C519.665253,31.2265435 518.762765,30.2267281 518.108018,28.9526267 C517.453272,27.6785253 517.125899,26.2274657 517.125899,24.599447 C517.125899,22.1574194 517.842581,20.1489396 519.275945,18.5740092 C520.709309,16.9990789 522.523133,16.2116129 524.717419,16.2116129 C526.911706,16.2116129 528.72553,16.9990789 530.158894,18.5740092 C531.592258,20.1489396 532.30894,22.1574194 532.30894,24.599447 C532.30894,26.2274657 531.981567,27.6785253 531.32682,28.9526267 C530.672073,30.2267281 529.769585,31.2265435 528.619355,31.9520737 C527.469125,32.6776031 526.16848,33.0403687 524.717419,33.0403687 Z" id="Welcometoneweraofmessaging"></path>
                <g id="编组-2" transform="translate(100.368664, 63.870968)">
                    <path d="M15.1299539,9.50267281 C18.0674838,9.50267281 20.6864705,10.1574183 22.9869124,11.4669124 C25.2873738,12.776405 27.0835034,14.5725346 28.3752995,16.8552995 C29.6670957,19.1380645 30.3129954,21.6951147 30.3129954,24.5264516 C30.3129954,27.3931797 29.6670957,29.9679263 28.3752995,32.2506912 C27.0835034,34.5334562 25.2873738,36.3295858 22.9869124,37.6390783 C20.6864511,38.9485717 18.067466,39.603318 15.1299539,39.603318 C12.2278338,39.603318 9.62654351,38.9485717 7.32608295,37.6390783 C5.02562239,36.3295858 3.22949363,34.5334562 1.93769585,32.2506912 C0.645898888,29.9679263 -1.0658141e-13,27.3931797 -1.0658141e-13,24.5264516 C-1.0658141e-13,21.6951147 0.645898888,19.1380645 1.93769585,16.8552995 C3.22949363,14.5725346 5.02562239,12.776405 7.32608295,11.4669124 C9.62654351,10.1574183 12.2278338,9.50267281 15.1299539,9.50267281 Z M15.1299539,16.1386175 C12.9356685,16.1386175 11.1218433,16.9260835 9.68847926,18.5010138 C8.25511521,20.0759442 7.53843318,22.084424 7.53843318,24.5264516 C7.53843318,26.9684793 8.25511521,28.9769583 9.68847926,30.5518894 C11.1218433,32.1268197 12.9356685,32.9142857 15.1299539,32.9142857 C16.5810144,32.9142857 17.8816595,32.5515202 19.0318894,31.8259908 C20.1821193,31.1004606 21.0846078,30.1006452 21.7393548,28.8265438 C22.3941019,27.5524424 22.7214747,26.1190783 22.7214747,24.5264516 C22.7214747,22.0490328 22.0047926,20.0317056 20.5714286,18.47447 C19.1380645,16.9172345 17.3242402,16.1386175 15.1299539,16.1386175 Z" id="形状结合"></path>
                    <path d="M42.6823963,38.9131797 L42.6823963,16.1386175 L49.6899539,16.1386175 L49.6899539,10.1928111 L42.6823963,10.1928111 L42.6823963,9.66193548 C42.6823963,8.28165899 43.1513361,7.25530062 44.0892166,6.58285714 C45.0270962,5.91041367 46.1861751,5.57419355 47.5664516,5.57419355 C48.7697334,5.57419355 49.6014379,5.59188832 50.0615668,5.62728111 L50.0615668,0.0530875576 L44.8589862,-8.54615917e-14 C41.7445159,-8.54615917e-14 39.3378802,0.858249928 37.6390783,2.57474654 C35.9402765,4.29124316 35.0908756,6.61824993 35.0908756,9.55576037 L35.0908756,10.1928111 L31.3747465,10.1928111 L31.3747465,16.1386175 L35.0908756,16.1386175 L35.0908756,38.9131797 L42.6823963,38.9131797 Z" id="路径"></path>
                    <path d="M79.1535484,38.9131797 L79.1535484,24.2610138 C79.1535484,21.6420271 79.6313364,19.6335489 80.5869124,18.235576 C81.5424885,16.8376031 82.958157,16.1386175 84.8339171,16.1386175 C88.443871,16.1386175 90.2488479,18.6868203 90.2488479,23.7832258 L90.2488479,38.9131797 L97.8403687,38.9131797 L97.8403687,23.8894009 C97.8757614,21.4119821 98.3623952,19.50083 99.3002765,18.1559447 C100.238158,16.8110594 101.62728,16.1386175 103.46765,16.1386175 C105.378802,16.1386175 106.767927,16.8287558 107.635023,18.2090323 C108.502119,19.5893088 108.935668,21.4473733 108.935668,23.7832258 L108.935668,38.9131797 L116.474101,38.9131797 L116.474101,21.5004608 C116.474101,17.819723 115.553918,14.8999073 113.713548,12.7410138 C111.873179,10.5821187 109.183408,9.50267281 105.64424,9.50267281 C103.520737,9.50267281 101.680368,9.91852427 100.123134,10.7502304 C98.5658997,11.5818847 97.3271879,12.7763548 96.4070046,14.3336406 L96.2477419,14.3336406 C94.4781561,11.1129943 91.611428,9.50267281 87.6475576,9.50267281 C85.6302304,9.50267281 83.940276,9.87428571 82.5776959,10.6175115 C81.2151255,11.3607373 80.0914386,12.475576 79.2066359,13.9620276 L79.0473733,13.9620276 L79.0473733,10.1928111 L71.6151152,10.1928111 L71.6151152,38.9131797 L79.1535484,38.9131797 Z" id="路径"></path>
                    <path d="M134.311521,9.50267281 C137.178249,9.50267281 139.629124,10.1574183 141.664147,11.4669124 C143.699195,12.776405 145.229887,14.519447 146.256221,16.6960369 C147.28258,18.8726267 147.79576,21.2527194 147.79576,23.8363134 L147.79576,23.8363134 L147.79576,24.844977 C147.79576,25.4820276 147.760368,25.9421201 147.689585,26.2252535 L147.689585,26.2252535 L127.834839,26.2252535 C128.117972,28.4195438 128.878894,30.1360412 130.117604,31.3747465 C131.356313,32.6134568 132.931244,33.2328111 134.842396,33.2328111 C136.328848,33.2328111 137.611797,32.8523508 138.691244,32.0914286 C139.770692,31.3305072 140.540461,30.2422123 141.000553,28.8265438 L141.000553,28.8265438 L147.530323,28.8265438 C147.424147,29.7113367 147.317972,30.3660829 147.211797,30.7907834 C147.105622,31.2154839 146.946359,31.6755763 146.734009,32.1710599 C145.74304,34.4007373 144.176959,36.1968669 142.03576,37.559447 C139.894562,38.9220279 137.408295,39.603318 134.576959,39.603318 C131.674833,39.603318 129.135478,38.9662673 126.958894,37.6921659 C124.782304,36.4180645 123.110046,34.6396313 121.94212,32.3568664 C120.774194,30.0741014 120.19023,27.4285717 120.19023,24.4202765 C120.19023,21.5889396 120.783043,19.0407368 121.968664,16.7756682 C123.154286,14.5105996 124.817696,12.7321664 126.958894,11.4403687 C129.100092,10.1485725 131.550968,9.50267281 134.311521,9.50267281 Z M134.258433,15.6608295 C132.595023,15.6608295 131.205899,16.2094015 130.09106,17.3065438 C128.976221,18.4036861 128.241844,19.8901377 127.887926,21.7658986 L127.887926,21.7658986 L140.363502,21.7658986 C140.292718,20.0317056 139.69106,18.5806452 138.558525,17.4127189 C137.42599,16.2447926 135.992626,15.6608295 134.258433,15.6608295 Z" id="形状结合"></path>
                    <path d="M162.076313,39.603318 C164.341382,39.603318 166.27023,39.1697693 167.862857,38.3026728 C169.455484,37.4355763 170.649954,36.3295858 171.446267,34.9847005 C172.242581,33.6398151 172.640737,32.2418439 172.640737,30.7907834 C172.640737,28.525714 171.906359,26.6588021 170.437604,25.1900461 C168.968848,23.7212909 166.818802,22.4029493 163.987465,21.235023 C162.00553,20.3856221 160.696037,19.7485714 160.058986,19.323871 C159.421935,18.8991705 159.10341,18.3152074 159.10341,17.5719816 C159.10341,16.899624 159.36,16.359901 159.87318,15.9528111 C160.38636,15.545807 161.120737,15.3423041 162.076313,15.3423041 C163.24424,15.3423041 164.235207,15.6431331 165.049217,16.2447926 C165.863226,16.8464522 166.429493,17.6958531 166.748018,18.7929954 L172.3753,16.4040553 C171.950599,14.2451618 170.844608,12.5552074 169.057327,11.3341935 C167.270047,10.1131797 164.872258,9.50267281 161.863963,9.50267281 C159.811249,9.50267281 158.050511,9.88313472 156.581751,10.6440553 C155.112996,11.4049759 153.989308,12.4224885 153.210691,13.6965899 C152.432073,14.9706912 152.042765,16.4040553 152.042765,17.996682 C152.042765,20.1201843 152.768294,21.9251613 154.219355,23.4116129 C155.670415,24.8980645 157.740829,26.1544703 160.430599,27.1808295 C161.881659,27.7824882 162.952258,28.2691244 163.642396,28.6407373 C164.332535,29.0123502 164.81917,29.3928113 165.102304,29.7821198 C165.385438,30.1714283 165.527005,30.6669127 165.527005,31.2685714 C165.527005,32.0825804 165.208479,32.6930881 164.571429,33.1000922 C163.934378,33.5070962 163.067281,33.7105991 161.970138,33.7105991 C160.660645,33.7105991 159.581198,33.4009211 158.731797,32.7815668 C157.882396,32.1622125 157.209954,31.2685714 156.71447,30.1006452 L150.981014,32.5957604 C151.582673,34.7546538 152.901013,36.4623039 154.936037,37.7187097 C156.971058,38.9751155 159.35115,39.603318 162.076313,39.603318 Z" id="路径"></path>
                    <path d="M186.124977,39.603318 C188.390046,39.603318 190.318894,39.1697693 191.911521,38.3026728 C193.504147,37.4355763 194.698618,36.3295858 195.494931,34.9847005 C196.291244,33.6398151 196.689401,32.2418439 196.689401,30.7907834 C196.689401,28.525714 195.955023,26.6588021 194.486267,25.1900461 C193.017512,23.7212909 190.867466,22.4029493 188.036129,21.235023 C186.054194,20.3856221 184.7447,19.7485714 184.10765,19.323871 C183.470599,18.8991705 183.152074,18.3152074 183.152074,17.5719816 C183.152074,16.899624 183.408663,16.359901 183.921843,15.9528111 C184.435023,15.545807 185.169401,15.3423041 186.124977,15.3423041 C187.292903,15.3423041 188.28387,15.6431331 189.09788,16.2447926 C189.91189,16.8464522 190.478157,17.6958531 190.796682,18.7929954 L196.423963,16.4040553 C195.999263,14.2451618 194.893271,12.5552074 193.105991,11.3341935 C191.31871,10.1131797 188.920921,9.50267281 185.912627,9.50267281 C183.859912,9.50267281 182.099175,9.88313472 180.630415,10.6440553 C179.16166,11.4049759 178.037972,12.4224885 177.259355,13.6965899 C176.480737,14.9706912 176.091429,16.4040553 176.091429,17.996682 C176.091429,20.1201843 176.816958,21.9251613 178.268018,23.4116129 C179.719079,24.8980645 181.789493,26.1544703 184.479263,27.1808295 C185.930322,27.7824882 187.000922,28.2691244 187.69106,28.6407373 C188.381198,29.0123502 188.867834,29.3928113 189.150968,29.7821198 C189.434102,30.1714283 189.575668,30.6669127 189.575668,31.2685714 C189.575668,32.0825804 189.257143,32.6930881 188.620092,33.1000922 C187.983041,33.5070962 187.115945,33.7105991 186.018802,33.7105991 C184.709308,33.7105991 183.629862,33.4009211 182.780461,32.7815668 C181.93106,32.1622125 181.258617,31.2685714 180.763134,30.1006452 L175.029677,32.5957604 C175.631336,34.7546538 176.949677,36.4623039 178.9847,37.7187097 C181.019722,38.9751155 183.399814,39.603318 186.124977,39.603318 Z" id="路径"></path>
                    <path d="M212.668756,9.50267281 C214.579908,9.50267281 216.305253,9.88313472 217.844793,10.6440553 C219.384332,11.4049759 220.631889,12.5109672 221.587465,13.9620276 L221.587465,13.9620276 L221.746728,13.9620276 L221.746728,10.1928111 L229.338249,10.1928111 L229.338249,38.9131797 L221.852903,38.9131797 L221.852903,34.6130876 L221.693641,34.6130876 C220.596498,36.3118894 219.322397,37.5682952 217.871336,38.3823041 C216.420276,39.1963131 214.686083,39.603318 212.668756,39.603318 C210.191336,39.603318 207.917419,38.9751155 205.847005,37.7187097 C203.77659,36.4623047 202.122028,34.6838707 200.883318,32.3834101 C199.644609,30.0829496 199.025253,27.4639629 199.025253,24.5264516 C199.025253,21.5535484 199.626912,18.9345617 200.83023,16.6694931 C202.033548,14.4044245 203.679263,12.6436861 205.767373,11.3872811 C207.855484,10.1308745 210.155945,9.50267281 212.668756,9.50267281 Z M214.155207,16.1386175 C211.960921,16.1386175 210.147097,16.9260835 208.713733,18.5010138 C207.280369,20.0759442 206.563687,22.084424 206.563687,24.5264516 C206.563687,26.1544703 206.89106,27.60553 207.545806,28.8796313 C208.200553,30.1537327 209.103041,31.1535481 210.253272,31.8790783 C211.403502,32.6046078 212.704147,32.9673733 214.155207,32.9673733 C215.606268,32.9673733 216.906913,32.6046078 218.057143,31.8790783 C219.207373,31.1535481 220.109861,30.1537327 220.764608,28.8796313 C221.419355,27.60553 221.746728,26.1544703 221.746728,24.5264516 C221.746728,22.084424 221.030046,20.0759442 219.596682,18.5010138 C218.163318,16.9260835 216.349494,16.1386175 214.155207,16.1386175 Z" id="形状结合"></path>
                    <path d="M245.901567,9.50267281 C247.63576,9.50267281 249.25493,9.90082949 250.759078,10.6971429 C252.263226,11.4934562 253.44,12.6171423 254.289401,14.0682028 L254.289401,14.0682028 L254.448664,14.0682028 L254.448664,10.1928111 L262.040184,10.1928111 L262.040184,33.8167742 C262.040184,37.6744695 261.341197,40.8154836 259.943226,43.2398157 C258.545253,45.6641477 256.722581,47.4071889 254.475207,48.4689401 C252.227834,49.5306912 249.741567,50.0615668 247.016406,50.0615668 C244.078894,50.0615668 241.574931,49.521843 239.504516,48.4423963 C237.434101,47.3629496 235.850322,45.9030417 234.75318,44.0626728 L234.75318,44.0626728 L240.061935,40.4527189 C240.911336,41.6206452 241.875761,42.5054372 242.955207,43.1070968 C244.034654,43.7087563 245.317604,44.0095853 246.804055,44.0095853 C249.281474,44.0095853 251.192626,43.2840558 252.537512,41.8329954 C253.882397,40.3819358 254.554839,38.0106912 254.554839,34.7192627 L254.554839,34.7192627 L254.554839,33.8698618 L254.395576,33.8698618 C252.484424,36.7719818 249.723871,38.2230415 246.113917,38.2230415 C243.530322,38.2230415 241.229862,37.6125346 239.212535,36.3915207 C237.195207,35.1705069 235.620277,33.4717051 234.487742,31.2951152 C233.355208,29.1185253 232.78894,26.6322583 232.78894,23.8363134 C232.78894,21.0757604 233.346359,18.6071889 234.461198,16.4305991 C235.576038,14.2540092 237.133272,12.5552074 239.132903,11.3341935 C241.132535,10.1131797 243.388756,9.50267281 245.901567,9.50267281 Z M247.388018,16.1386175 C245.335299,16.1386175 243.645346,16.8552995 242.318157,18.2886636 C240.990968,19.7220276 240.327373,21.5712448 240.327373,23.8363134 C240.327373,26.1013828 240.990968,27.9682947 242.318157,29.4370507 C243.645346,30.9058067 245.335299,31.6401843 247.388018,31.6401843 C249.440737,31.6401843 251.130691,30.9058067 252.45788,29.4370507 C253.785069,27.9682922 254.448664,26.1013795 254.448664,23.8363134 C254.448664,21.5712448 253.785069,19.7220276 252.45788,18.2886636 C251.130691,16.8552995 249.440737,16.1386175 247.388018,16.1386175 Z" id="形状结合"></path>
                    <path d="M270.746544,8.49400922 C271.91447,8.49400922 272.905438,8.07815776 273.719447,7.24645161 C274.533456,6.41474546 274.940461,5.41493088 274.940461,4.24700461 C274.940461,3.07907834 274.533456,2.07926375 273.719447,1.2475576 C272.905438,0.415851454 271.91447,9.35657082e-14 270.746544,9.35657082e-14 C269.578618,9.35657082e-14 268.58765,0.415851454 267.773641,1.2475576 C266.959632,2.07926375 266.552627,3.07907834 266.552627,4.24700461 C266.552627,5.41493088 266.959632,6.41474546 267.773641,7.24645161 C268.58765,8.07815776 269.578618,8.49400922 270.746544,8.49400922 Z" id="路径"></path>
                    <polygon id="路径" points="274.51576 38.9131797 274.51576 10.1928111 266.977327 10.1928111 266.977327 38.9131797"></polygon>
                    <path d="M287.044424,38.9131797 L287.044424,24.5264516 C287.044424,21.8366826 287.5753,19.7662678 288.637051,18.3152074 C289.698802,16.8641469 291.273732,16.1386175 293.361843,16.1386175 C295.449954,16.1386175 296.989494,16.8552995 297.980461,18.2886636 C298.971428,19.7220276 299.466912,21.6066359 299.466912,23.9424885 L299.466912,38.9131797 L307.005346,38.9131797 L307.005346,21.5004608 C307.005346,17.8551157 306.04977,14.9441475 304.138618,12.7675576 C302.227465,10.5909677 299.502304,9.50267281 295.963134,9.50267281 C293.875023,9.50267281 292.114286,9.87428571 290.680922,10.6175115 C289.247558,11.3607373 288.053088,12.475576 287.097512,13.9620276 L286.938249,13.9620276 L286.938249,10.1928111 L279.505991,10.1928111 L279.505991,38.9131797 L287.044424,38.9131797 Z" id="路径"></path>
                    <path d="M323.090876,9.50267281 C324.825069,9.50267281 326.444239,9.90082949 327.948387,10.6971429 C329.452535,11.4934562 330.629309,12.6171423 331.47871,14.0682028 L331.47871,14.0682028 L331.637972,14.0682028 L331.637972,10.1928111 L339.229493,10.1928111 L339.229493,33.8167742 C339.229493,37.6744695 338.530506,40.8154836 337.132535,43.2398157 C335.734562,45.6641477 333.91189,47.4071889 331.664516,48.4689401 C329.417142,49.5306912 326.930876,50.0615668 324.205714,50.0615668 C321.268203,50.0615668 318.76424,49.521843 316.693825,48.4423963 C314.62341,47.3629496 313.039631,45.9030417 311.942488,44.0626728 L311.942488,44.0626728 L317.251244,40.4527189 C318.100645,41.6206452 319.065069,42.5054372 320.144516,43.1070968 C321.223963,43.7087563 322.506912,44.0095853 323.993364,44.0095853 C326.470783,44.0095853 328.381935,43.2840558 329.72682,41.8329954 C331.071706,40.3819358 331.744147,38.0106912 331.744147,34.7192627 L331.744147,34.7192627 L331.744147,33.8698618 L331.584885,33.8698618 C329.673733,36.7719818 326.91318,38.2230415 323.303226,38.2230415 C320.719631,38.2230415 318.419171,37.6125346 316.401843,36.3915207 C314.384516,35.1705069 312.809586,33.4717051 311.677051,31.2951152 C310.544516,29.1185253 309.978249,26.6322583 309.978249,23.8363134 C309.978249,21.0757604 310.535668,18.6071889 311.650507,16.4305991 C312.765346,14.2540092 314.322581,12.5552074 316.322212,11.3341935 C318.321844,10.1131797 320.578065,9.50267281 323.090876,9.50267281 Z M324.577327,16.1386175 C322.524608,16.1386175 320.834654,16.8552995 319.507465,18.2886636 C318.180276,19.7220276 317.516682,21.5712448 317.516682,23.8363134 C317.516682,26.1013828 318.180276,27.9682947 319.507465,29.4370507 C320.834654,30.9058067 322.524608,31.6401843 324.577327,31.6401843 C326.630046,31.6401843 328.32,30.9058067 329.647189,29.4370507 C330.974378,27.9682922 331.637972,26.1013795 331.637972,23.8363134 C331.637972,21.5712448 330.974378,19.7220276 329.647189,18.2886636 C328.32,16.8552995 326.630046,16.1386175 324.577327,16.1386175 Z" id="形状结合"></path>
                </g>
            </g>
        </g>
    </g>
</svg>