<?xml version="1.0" encoding="UTF-8"?>
<svg width="1205px" height="224px" viewBox="0 0 1205 224" version="1.1" xmlns="http://www.w3.org/2000/svg" xmlns:xlink="http://www.w3.org/1999/xlink">
    <title>title_home</title>
    <g id="2.0" stroke="none" stroke-width="1" fill="none" fill-rule="evenodd">
        <g id="home_1920" transform="translate(-358.000000, -311.000000)" fill="#FFFFFF" fill-rule="nonzero">
            <g id="Welcometoneweraofmessaging-2" transform="translate(358.620000, 311.268000)">
                <path d="M40.248,76.232 L59.488,26.104 L78.52,76.232 L91.416,76.232 L118.664,1.352 L102.648,1.352 L85.176,54.912 L65.416,1.352 L54.808,1.352 L34.632,55.12 L17.264,1.352 L7.95807864e-13,1.352 L27.352,76.232 L40.248,76.232 Z M143.208,77.584 C148.754668,77.584 153.625332,76.2493339 157.82,73.58 C162.014668,70.9106677 165.082665,67.392 167.024,63.024 C167.44,62.0533339 167.752,61.152 167.96,60.32 C168.168,59.488 168.376,58.2053339 168.584,56.472 L155.792,56.472 C154.890668,59.2453339 153.382668,61.3773339 151.268,62.868 C149.153332,64.3586677 146.64,65.104 143.728,65.104 C139.984,65.104 136.898666,63.8906677 134.472,61.464 C132.045334,59.0373418 130.554666,55.6746757 130,51.376 L168.896,51.376 C169.034665,50.8213339 169.104,49.92 169.104,48.672 L169.104,46.696 C169.104,41.6346677 168.098665,36.972 166.088,32.708 C164.077383,28.444 161.078715,25.0293323 157.092,22.464 C153.105332,19.8986646 148.304,18.616 142.688,18.616 C137.28,18.616 132.478666,19.8813354 128.284,22.412 C124.089334,24.9426677 120.830668,28.4266677 118.508,32.864 C116.185335,37.3013323 115.024,42.2933323 115.024,47.84 C115.024,53.7333339 116.168,58.916 118.456,63.388 C120.744,67.86 124.02,71.344 128.284,73.84 C132.547989,76.336 137.522655,77.584 143.208,77.584 Z M154.544,42.64 L130.104,42.64 C130.797334,38.9653323 132.236,36.0533323 134.42,33.904 C136.604,31.7546677 139.325332,30.68 142.584,30.68 C145.981332,30.68 148.789332,31.824 151.008,34.112 C153.226668,36.4 154.405332,39.2426677 154.544,42.64 Z M192.92,76.232 L192.92,6.552 L178.152,1.352 L178.152,76.232 L192.92,76.232 Z M230.568,77.584 C234.866668,77.584 238.749332,76.8213339 242.216,75.296 L242.216,62.088 C238.68,63.752 235.005332,64.584 231.192,64.584 C226.2,64.584 222.178666,63.0413323 219.128,59.956 C216.077334,56.8706661 214.552,52.832 214.552,47.84 C214.552,43.056 215.990666,39.156 218.868,36.14 C221.745334,33.124 225.610668,31.616 230.464,31.616 C235.04,31.616 238.888,32.656 242.008,34.736 L242.008,21.112 C238.54137,19.448 234.658703,18.616 230.36,18.616 C224.328,18.616 218.989334,19.8813354 214.344,22.412 C209.698666,24.9426677 206.110666,28.4266677 203.58,32.864 C201.049334,37.3013323 199.784,42.328 199.784,47.944 C199.784,53.6293339 201.084,58.7253339 203.684,63.232 C206.284,67.7386661 209.924,71.2573323 214.604,73.788 C219.284,76.3186661 224.605332,77.584 230.568,77.584 Z M274.144,77.584 C279.898668,77.584 285.029332,76.3013339 289.536,73.736 C294.042668,71.1706677 297.561335,67.652 300.092,63.18 C302.622665,58.708 303.888,53.664 303.888,48.048 C303.888,42.5013323 302.622665,37.492 300.092,33.02 C297.561335,28.548 294.042668,25.0293323 289.536,22.464 C285.02937,19.8986646 279.898703,18.616 274.144,18.616 C268.458666,18.616 263.362666,19.8986646 258.856,22.464 C254.349334,25.0293323 250.830668,28.548 248.3,33.02 C245.769334,37.492 244.504,42.5013323 244.504,48.048 C244.504,53.664 245.769334,58.708 248.3,63.18 C250.830668,67.652 254.349334,71.1706677 258.856,73.736 C263.362666,76.3013339 268.458666,77.584 274.144,77.584 Z M274.144,64.48 C269.845334,64.48 266.292,62.9373323 263.484,59.852 C260.676,56.7666661 259.272,52.832 259.272,48.048 C259.272,43.264 260.676,39.3293323 263.484,36.244 C266.292,33.1586677 269.845334,31.616 274.144,31.616 C278.442668,31.616 281.996,33.1413323 284.804,36.192 C287.612,39.2426677 289.016,43.1946677 289.016,48.048 C289.016,51.168 288.374668,53.976 287.092,56.472 C285.809332,58.968 284.041332,60.9266661 281.788,62.348 C279.534668,63.7693323 276.986668,64.48 274.144,64.48 Z M322.816,76.232 L322.816,47.528 C322.816,42.3973323 323.752,38.4626677 325.624,35.724 C327.496,32.9853323 330.269334,31.616 333.944,31.616 C341.016,31.616 344.552,36.608 344.552,46.592 L344.552,76.232 L359.424,76.232 L359.424,46.8 C359.493335,41.9466677 360.446665,38.2026677 362.284,35.568 C364.121335,32.9333323 366.842665,31.616 370.448,31.616 C374.192,31.616 376.913335,32.968 378.612,35.672 C380.310665,38.376 381.16,42.016 381.16,46.592 L381.16,76.232 L395.928,76.232 L395.928,42.12 C395.928,34.9093323 394.125335,29.1893323 390.52,24.96 C386.914665,20.7306646 381.645329,18.616 374.712,18.616 C370.552,18.616 366.946665,19.4306646 363.896,21.06 C360.845335,22.6892339 358.418665,25.0292339 356.616,28.08 L356.304,28.08 C352.837332,21.7706646 347.221332,18.616 339.456,18.616 C335.504,18.616 332.193332,19.344 329.524,20.8 C326.854687,22.256 324.653353,24.44 322.92,27.352 L322.608,27.352 L322.608,22.048 L308.048,19.968 L308.048,76.232 L322.816,76.232 Z M431.392,77.584 C436.938668,77.584 441.809332,76.2493339 446.004,73.58 C450.198668,70.9106677 453.266665,67.392 455.208,63.024 C455.624,62.0533339 455.936,61.152 456.144,60.32 C456.352,59.488 456.56,58.2053339 456.768,56.472 L443.976,56.472 C443.074668,59.2453339 441.566668,61.3773339 439.452,62.868 C437.337332,64.3586677 434.824,65.104 431.912,65.104 C428.168,65.104 425.082666,63.8906677 422.656,61.464 C420.229334,59.0373418 418.738666,55.6746757 418.184,51.376 L457.08,51.376 C457.218665,50.8213339 457.288,49.92 457.288,48.672 L457.288,46.696 C457.288,41.6346677 456.282665,36.972 454.272,32.708 C452.261383,28.444 449.262715,25.0293323 445.276,22.464 C441.289332,19.8986646 436.488,18.616 430.872,18.616 C425.464,18.616 420.662666,19.8813354 416.468,22.412 C412.273334,24.9426677 409.014668,28.4266677 406.692,32.864 C404.369335,37.3013323 403.208,42.2933323 403.208,47.84 C403.208,53.7333339 404.352,58.916 406.64,63.388 C408.928,67.86 412.204,71.344 416.468,73.84 C420.731989,76.336 425.706655,77.584 431.392,77.584 Z M442.728,42.64 L418.288,42.64 C418.981334,38.9653323 420.42,36.0533323 422.604,33.904 C424.788,31.7546677 427.509332,30.68 430.768,30.68 C434.165332,30.68 436.973332,31.824 439.192,34.112 C441.410668,36.4 442.589332,39.2426677 442.728,42.64 Z M528.112,76.232 L528.112,31.616 L539.656,31.616 L539.656,19.968 L528.112,19.968 L528.112,5.824 L513.24,0.624 L513.24,19.968 L508.56,19.968 L504.4,31.616 L513.24,31.616 L513.24,76.232 L528.112,76.232 Z M570.336,77.584 C576.090668,77.584 581.221332,76.3013339 585.728,73.736 C590.234668,71.1706677 593.753335,67.652 596.284,63.18 C598.814665,58.708 600.08,53.664 600.08,48.048 C600.08,42.5013323 598.814665,37.492 596.284,33.02 C593.753335,28.548 590.234668,25.0293323 585.728,22.464 C581.22137,19.8986646 576.090703,18.616 570.336,18.616 C564.650666,18.616 559.554666,19.8986646 555.048,22.464 C550.541334,25.0293323 547.022668,28.548 544.492,33.02 C541.961334,37.492 540.696,42.5013323 540.696,48.048 C540.696,53.664 541.961334,58.708 544.492,63.18 C547.022668,67.652 550.541334,71.1706677 555.048,73.736 C559.554666,76.3013339 564.650666,77.584 570.336,77.584 Z M570.336,64.48 C566.037334,64.48 562.484,62.9373323 559.676,59.852 C556.868,56.7666661 555.464,52.832 555.464,48.048 C555.464,43.264 556.868,39.3293323 559.676,36.244 C562.484,33.1586677 566.037334,31.616 570.336,31.616 C574.634668,31.616 578.188,33.1413323 580.996,36.192 C583.804,39.2426677 585.208,43.1946677 585.208,48.048 C585.208,51.168 584.566668,53.976 583.284,56.472 C582.001332,58.968 580.233332,60.9266661 577.98,62.348 C575.726668,63.7693323 573.178668,64.48 570.336,64.48 Z M665.808,76.232 L665.808,48.048 C665.808,42.7786677 666.848,38.7226677 668.928,35.88 C671.008,33.0373323 674.093332,31.616 678.184,31.616 C682.274668,31.616 685.290668,33.02 687.232,35.828 C689.173332,38.636 690.144,42.328 690.144,46.904 L690.144,76.232 L704.912,76.232 L704.912,42.12 C704.912,34.9786677 703.04,29.276 699.296,25.012 C695.552,20.748 690.213332,18.616 683.28,18.616 C679.189332,18.616 675.74,19.344 672.932,20.8 C670.124,22.256 667.784,24.44 665.912,27.352 L665.6,27.352 L665.6,23.088 L651.04,19.968 L651.04,76.232 L665.808,76.232 Z M741.104,77.584 C746.650668,77.584 751.521332,76.2493339 755.716,73.58 C759.910668,70.9106677 762.978665,67.392 764.92,63.024 C765.336,62.0533339 765.648,61.152 765.856,60.32 C766.064,59.488 766.272,58.2053339 766.48,56.472 L753.688,56.472 C752.786668,59.2453339 751.278668,61.3773339 749.164,62.868 C747.049332,64.3586677 744.536,65.104 741.624,65.104 C737.88,65.104 734.794666,63.8906677 732.368,61.464 C729.941334,59.0373418 728.450666,55.6746757 727.896,51.376 L766.792,51.376 C766.930665,50.8213339 767,49.92 767,48.672 L767,46.696 C767,41.6346677 765.994665,36.972 763.984,32.708 C761.973383,28.444 758.974715,25.0293323 754.988,22.464 C751.001332,19.8986646 746.2,18.616 740.584,18.616 C735.176,18.616 730.374666,19.8813354 726.18,22.412 C721.985334,24.9426677 718.726668,28.4266677 716.404,32.864 C714.081335,37.3013323 712.92,42.2933323 712.92,47.84 C712.92,53.7333339 714.064,58.916 716.352,63.388 C718.64,67.86 721.916,71.344 726.18,73.84 C730.443989,76.336 735.418655,77.584 741.104,77.584 Z M752.44,42.64 L728,42.64 C728.693334,38.9653323 730.132,36.0533323 732.316,33.904 C734.5,31.7546677 737.221332,30.68 740.48,30.68 C743.877332,30.68 746.685332,31.824 748.904,34.112 C751.122668,36.4 752.301332,39.2426677 752.44,42.64 Z M799.032,76.232 L814.216,37.752 L829.504,76.232 L840.008,76.232 L859.664,19.968 L845.416,19.968 L834.288,56.16 L820.144,19.968 L809.848,19.968 L795.6,56.16 L784.68,19.968 L768.976,19.968 L788.528,76.232 L799.032,76.232 Z M924.456,77.584 C930.002668,77.584 934.873332,76.2493339 939.068,73.58 C943.262668,70.9106677 946.330665,67.392 948.272,63.024 C948.688,62.0533339 949,61.152 949.208,60.32 C949.416,59.488 949.624,58.2053339 949.832,56.472 L937.04,56.472 C936.138668,59.2453339 934.630668,61.3773339 932.516,62.868 C930.401332,64.3586677 927.888,65.104 924.976,65.104 C921.232,65.104 918.146666,63.8906677 915.72,61.464 C913.293334,59.0373418 911.802666,55.6746757 911.248,51.376 L950.144,51.376 C950.282665,50.8213339 950.352,49.92 950.352,48.672 L950.352,46.696 C950.352,41.6346677 949.346665,36.972 947.336,32.708 C945.325383,28.444 942.326715,25.0293323 938.34,22.464 C934.353332,19.8986646 929.552,18.616 923.936,18.616 C918.528,18.616 913.726666,19.8813354 909.532,22.412 C905.337334,24.9426677 902.078668,28.4266677 899.756,32.864 C897.433335,37.3013323 896.272,42.2933323 896.272,47.84 C896.272,53.7333339 897.416,58.916 899.704,63.388 C901.992,67.86 905.268,71.344 909.532,73.84 C913.795989,76.336 918.770655,77.584 924.456,77.584 Z M935.792,42.64 L911.352,42.64 C912.045334,38.9653323 913.484,36.0533323 915.668,33.904 C917.852,31.7546677 920.573332,30.68 923.832,30.68 C927.229332,30.68 930.037332,31.824 932.256,34.112 C934.474668,36.4 935.653332,39.2426677 935.792,42.64 Z M971.36,76.232 L971.36,50.96 C971.36,44.5813323 972.798666,40.1266677 975.676,37.596 C978.553334,35.0653323 983.112,33.8 989.352,33.8 L991.12,30.16 C991.674668,29.0506677 992.385332,27.7506677 993.252,26.26 C994.118668,24.7693323 994.794668,23.712 995.28,23.088 L997.88,19.76 L989.352,19.656 C984.914668,19.5866646 981.257332,20.2626646 978.38,21.684 C975.502666,23.1053323 973.197332,25.4106677 971.464,28.6 L971.152,28.6 L971.152,23.088 L956.592,19.968 L956.592,76.232 L971.36,76.232 Z M1023.464,77.584 C1027.416,77.584 1030.81333,76.7866661 1033.656,75.192 C1036.49867,73.5973339 1038.99467,71.136 1041.144,67.808 L1041.456,67.808 L1041.456,76.232 L1056.12,76.232 L1056.12,25.168 L1041.248,19.968 L1041.248,27.352 L1040.936,27.352 C1039.064,24.5093323 1036.62,22.3426646 1033.604,20.852 C1030.588,19.3613354 1027.208,18.616 1023.464,18.616 C1018.54133,18.616 1014.03467,19.8466646 1009.944,22.308 C1005.85333,24.7693323 1002.62933,28.2186677 1000.272,32.656 C997.914666,37.0933323 996.736,42.224 996.736,48.048 C996.736,53.8026661 997.949334,58.9333339 1000.376,63.44 C1002.80267,67.9466661 1006.044,71.4306677 1010.1,73.892 C1014.156,76.3533339 1018.61067,77.584 1023.464,77.584 Z M1026.376,64.584 C1023.53333,64.584 1020.98533,63.8733323 1018.732,62.452 C1016.47867,61.0306661 1014.71067,59.072 1013.428,56.576 C1012.14533,54.08 1011.504,51.2373339 1011.504,48.048 C1011.504,43.264 1012.908,39.3293323 1015.716,36.244 C1018.524,33.1586677 1022.07733,31.616 1026.376,31.616 C1030.67467,31.616 1034.228,33.1586677 1037.036,36.244 C1039.844,39.3293323 1041.248,43.264 1041.248,48.048 C1041.248,51.2373339 1040.60667,54.08 1039.324,56.576 C1038.04133,59.072 1036.27333,61.0306661 1034.02,62.452 C1031.76667,63.8733323 1029.21867,64.584 1026.376,64.584 Z M1135.576,77.584 C1141.33067,77.584 1146.46133,76.3013339 1150.968,73.736 C1155.47467,71.1706677 1158.99334,67.652 1161.524,63.18 C1164.05466,58.708 1165.32,53.664 1165.32,48.048 C1165.32,42.5013323 1164.05466,37.492 1161.524,33.02 C1158.99334,28.548 1155.47467,25.0293323 1150.968,22.464 C1146.46137,19.8986646 1141.3307,18.616 1135.576,18.616 C1129.89067,18.616 1124.79467,19.8986646 1120.288,22.464 C1115.78133,25.0293323 1112.26267,28.548 1109.732,33.02 C1107.20133,37.492 1105.936,42.5013323 1105.936,48.048 C1105.936,53.664 1107.20133,58.708 1109.732,63.18 C1112.26267,67.652 1115.78133,71.1706677 1120.288,73.736 C1124.79467,76.3013339 1129.89067,77.584 1135.576,77.584 Z M1135.576,64.48 C1131.27733,64.48 1127.724,62.9373323 1124.916,59.852 C1122.108,56.7666661 1120.704,52.832 1120.704,48.048 C1120.704,43.264 1122.108,39.3293323 1124.916,36.244 C1127.724,33.1586677 1131.27733,31.616 1135.576,31.616 C1139.87467,31.616 1143.428,33.1413323 1146.236,36.192 C1149.044,39.2426677 1150.448,43.1946677 1150.448,48.048 C1150.448,51.168 1149.80667,53.976 1148.524,56.472 C1147.24133,58.968 1145.47333,60.9266661 1143.22,62.348 C1140.96667,63.7693323 1138.41867,64.48 1135.576,64.48 Z M1189.552,76.232 L1189.552,31.616 L1203.28,31.616 L1203.28,19.968 L1189.552,19.968 L1189.552,18.928 C1189.552,16.224 1190.47067,14.2133354 1192.308,12.896 C1194.14533,11.5786646 1196.416,10.92 1199.12,10.92 C1201.47726,10.92 1203.10659,10.9546646 1204.008,11.024 L1204.008,0.104 L1193.816,5.68434189e-14 C1187.71467,5.68434189e-14 1183,1.68133545 1179.672,5.044 C1176.344,8.40666455 1174.68,12.9653354 1174.68,18.72 L1174.68,19.968 L1171.56,19.968 L1167.4,31.616 L1174.68,31.616 L1174.68,76.232 L1189.552,76.232 Z M353.184,201.232 L353.184,172.528 C353.184,167.397332 354.12,163.462668 355.992,160.724 C357.864,157.985332 360.637334,156.616 364.312,156.616 C371.384,156.616 374.92,161.608 374.92,171.592 L374.92,201.232 L389.792,201.232 L389.792,171.8 C389.861335,166.946668 390.814665,163.202668 392.652,160.568 C394.489335,157.933332 397.210665,156.616 400.816,156.616 C404.56,156.616 407.281335,157.968 408.98,160.672 C410.678665,163.376 411.528,167.016 411.528,171.592 L411.528,201.232 L426.296,201.232 L426.296,167.12 C426.296,159.909332 424.493335,154.189332 420.888,149.96 C417.282665,145.730665 412.013329,143.616 405.08,143.616 C400.92,143.616 397.314665,144.430665 394.264,146.06 C391.213335,147.689234 388.786665,150.029234 386.984,153.08 L386.672,153.08 C383.205332,146.770665 377.589332,143.616 369.824,143.616 C365.872,143.616 362.561332,144.344 359.892,145.8 C357.222687,147.256 355.021353,149.44 353.288,152.352 L352.976,152.352 L352.976,147.048 L338.416,144.968 L338.416,201.232 L353.184,201.232 Z M461.76,202.584 C467.306668,202.584 472.177332,201.249334 476.372,198.58 C480.566668,195.910668 483.634665,192.392 485.576,188.024 C485.992,187.053334 486.304,186.152 486.512,185.32 C486.72,184.488 486.928,183.205334 487.136,181.472 L474.344,181.472 C473.442668,184.245334 471.934668,186.377334 469.82,187.868 C467.705332,189.358668 465.192,190.104 462.28,190.104 C458.536,190.104 455.450666,188.890668 453.024,186.464 C450.597334,184.037342 449.106666,180.674676 448.552,176.376 L487.448,176.376 C487.586665,175.821334 487.656,174.92 487.656,173.672 L487.656,171.696 C487.656,166.634668 486.650665,161.972 484.64,157.708 C482.629383,153.444 479.630715,150.029332 475.644,147.464 C471.657332,144.898665 466.856,143.616 461.24,143.616 C455.832,143.616 451.030666,144.881335 446.836,147.412 C442.641334,149.942668 439.382668,153.426668 437.06,157.864 C434.737335,162.301332 433.576,167.293332 433.576,172.84 C433.576,178.733334 434.72,183.916 437.008,188.388 C439.296,192.86 442.572,196.344 446.836,198.84 C451.099989,201.336 456.074655,202.584 461.76,202.584 Z M473.096,167.64 L448.656,167.64 C449.349334,163.965332 450.788,161.053332 452.972,158.904 C455.156,156.754668 457.877332,155.68 461.136,155.68 C464.533332,155.68 467.341332,156.824 469.56,159.112 C471.778668,161.4 472.957332,164.242668 473.096,167.64 Z M515.632,202.584 C520.069332,202.584 523.848,201.734666 526.968,200.036 C530.088,198.337334 532.428,196.170668 533.988,193.536 C535.548,190.901332 536.328,188.162668 536.328,185.32 C536.328,180.882666 534.889332,177.225334 532.012,174.348 C529.134668,171.470668 524.922668,168.888 519.376,166.6 C515.493334,164.936 512.928,163.688 511.68,162.856 C510.432,162.024 509.808,160.88 509.808,159.424 C509.808,158.106833 510.310666,157.0495 511.316,156.252 C512.321334,155.454668 513.76,155.056 515.632,155.056 C517.92,155.056 519.861332,155.645332 521.456,156.824 C523.050668,158.002668 524.16,159.666668 524.784,161.816 L535.808,157.136 C534.976,152.906668 532.809332,149.596 529.308,147.204 C525.806668,144.812 521.109332,143.616 515.216,143.616 C511.194676,143.616 507.745342,144.361335 504.868,145.852 C501.990668,147.342665 499.789332,149.336 498.264,151.832 C496.738666,154.328 495.976,157.136 495.976,160.256 C495.976,164.416 497.397332,167.952 500.24,170.864 C503.082668,173.776 507.138666,176.237334 512.408,178.248 C515.250666,179.426666 517.348,180.38 518.7,181.108 C520.052,181.836 521.005332,182.581334 521.56,183.344 C522.114668,184.106666 522.392,185.077334 522.392,186.256 C522.392,187.850666 521.768,189.046668 520.52,189.844 C519.272,190.641332 517.573334,191.04 515.424,191.04 C512.858666,191.04 510.744,190.433332 509.08,189.22 C507.416,188.006668 506.098666,186.256 505.128,183.968 L493.896,188.856 C495.074666,193.085332 497.657332,196.430666 501.644,198.892 C505.630663,201.353334 510.293329,202.584 515.632,202.584 Z M562.744,202.584 C567.181332,202.584 570.96,201.734666 574.08,200.036 C577.2,198.337334 579.54,196.170668 581.1,193.536 C582.66,190.901332 583.44,188.162668 583.44,185.32 C583.44,180.882666 582.001332,177.225334 579.124,174.348 C576.246668,171.470668 572.034668,168.888 566.488,166.6 C562.605334,164.936 560.04,163.688 558.792,162.856 C557.544,162.024 556.92,160.88 556.92,159.424 C556.92,158.106833 557.422666,157.0495 558.428,156.252 C559.433334,155.454668 560.872,155.056 562.744,155.056 C565.032,155.056 566.973332,155.645332 568.568,156.824 C570.162668,158.002668 571.272,159.666668 571.896,161.816 L582.92,157.136 C582.088,152.906668 579.921332,149.596 576.42,147.204 C572.918668,144.812 568.221332,143.616 562.328,143.616 C558.306676,143.616 554.857342,144.361335 551.98,145.852 C549.102668,147.342665 546.901332,149.336 545.376,151.832 C543.850666,154.328 543.088,157.136 543.088,160.256 C543.088,164.416 544.509332,167.952 547.352,170.864 C550.194668,173.776 554.250666,176.237334 559.52,178.248 C562.362666,179.426666 564.46,180.38 565.812,181.108 C567.164,181.836 568.117332,182.581334 568.672,183.344 C569.226668,184.106666 569.504,185.077334 569.504,186.256 C569.504,187.850666 568.88,189.046668 567.632,189.844 C566.384,190.641332 564.685334,191.04 562.536,191.04 C559.970666,191.04 557.856,190.433332 556.192,189.22 C554.528,188.006668 553.210666,186.256 552.24,183.968 L541.008,188.856 C542.186666,193.085332 544.769332,196.430666 548.756,198.892 C552.742663,201.353334 557.405329,202.584 562.744,202.584 Z M614.744,202.584 C618.696,202.584 622.093332,201.786666 624.936,200.192 C627.778668,198.597334 630.274668,196.136 632.424,192.808 L632.736,192.808 L632.736,201.232 L647.4,201.232 L647.4,150.168 L632.528,144.968 L632.528,152.352 L632.216,152.352 C630.344,149.509332 627.9,147.342665 624.884,145.852 C621.868,144.361335 618.488,143.616 614.744,143.616 C609.821334,143.616 605.314666,144.846665 601.224,147.308 C597.133334,149.769332 593.909332,153.218668 591.552,157.656 C589.194666,162.093332 588.016,167.224 588.016,173.048 C588.016,178.802666 589.229334,183.933334 591.656,188.44 C594.082668,192.946666 597.324,196.430668 601.38,198.892 C605.436,201.353334 609.890666,202.584 614.744,202.584 Z M617.656,189.584 C614.813332,189.584 612.265332,188.873332 610.012,187.452 C607.758666,186.030666 605.990666,184.072 604.708,181.576 C603.425334,179.08 602.784,176.237334 602.784,173.048 C602.784,168.264 604.188,164.329332 606.996,161.244 C609.804,158.158668 613.357332,156.616 617.656,156.616 C621.954668,156.616 625.508,158.158668 628.316,161.244 C631.124,164.329332 632.528,168.264 632.528,173.048 C632.528,176.237334 631.886668,179.08 630.604,181.576 C629.321332,184.072 627.553332,186.030666 625.3,187.452 C623.046668,188.873332 620.498668,189.584 617.656,189.584 Z M682.032,223.072 C687.370668,223.072 692.241332,222.032 696.644,219.952 C701.046668,217.872 704.617332,214.457334 707.356,209.708 C710.094665,204.958666 711.464,198.805332 711.464,191.248 L711.464,144.968 L696.592,148.088 L696.592,152.56 L696.28,152.56 C694.616,149.717332 692.310668,147.516 689.364,145.956 C686.417332,144.396 683.245332,143.616 679.848,143.616 C674.925334,143.616 670.505334,144.812 666.588,147.204 C662.670668,149.596 659.620002,152.924 657.436,157.188 C655.252,161.452 654.16,166.288 654.16,171.696 C654.16,177.173334 655.269334,182.044 657.488,186.308 C659.706668,190.572 662.792,193.9 666.744,196.292 C670.696,198.684 675.202666,199.88 680.264,199.88 C687.336,199.88 692.744,197.037334 696.488,191.352 L696.8,191.352 L696.8,193.016 C696.8,199.464 695.482668,204.109334 692.848,206.952 C690.213332,209.794668 686.469332,211.216 681.616,211.216 C678.704,211.216 676.190666,210.626668 674.076,209.448 C671.961334,208.269332 670.072,206.536 668.408,204.248 L658.008,211.32 C660.157332,214.925334 663.26,217.785334 667.316,219.9 C671.372,222.014666 676.277334,223.072 682.032,223.072 Z M682.76,186.984 C678.738666,186.984 675.428,185.545334 672.828,182.668 C670.228,179.790666 668.928,176.133334 668.928,171.696 C668.928,167.258668 670.228,163.636 672.828,160.828 C675.428,158.02 678.738666,156.616 682.76,156.616 C686.781332,156.616 690.092,158.02 692.692,160.828 C695.292,163.636 696.592,167.258668 696.592,171.696 C696.592,176.133328 695.292,179.790661 692.692,182.668 C690.092,185.545334 686.781332,186.984 682.76,186.984 Z M728.52,141.64 C730.808,141.64 732.749334,140.825335 734.344,139.196 C735.938666,137.566665 736.736,135.608 736.736,133.32 C736.736,131.032 735.938666,129.073335 734.344,127.444 C732.749334,125.814665 730.808,125 728.52,125 C726.232,125 724.290668,125.814665 722.696,127.444 C721.101334,129.073335 720.304,131.032 720.304,133.32 C720.304,135.608 721.101334,137.566665 722.696,139.196 C724.290668,140.825335 726.232,141.64 728.52,141.64 Z M735.904,201.232 L735.904,144.968 L721.136,144.968 L721.136,201.232 L735.904,201.232 Z M760.448,201.232 L760.448,173.048 C760.448,167.778668 761.488,163.722668 763.568,160.88 C765.648,158.037332 768.733332,156.616 772.824,156.616 C776.914668,156.616 779.930668,158.02 781.872,160.828 C783.813332,163.636 784.784,167.328 784.784,171.904 L784.784,201.232 L799.552,201.232 L799.552,167.12 C799.552,159.978668 797.68,154.276 793.936,150.012 C790.192,145.748 784.853332,143.616 777.92,143.616 C773.829332,143.616 770.38,144.344 767.572,145.8 C764.764,147.256 762.424,149.44 760.552,152.352 L760.24,152.352 L760.24,148.088 L745.68,144.968 L745.68,201.232 L760.448,201.232 Z M833.248,223.072 C838.586668,223.072 843.457332,222.032 847.86,219.952 C852.262668,217.872 855.833332,214.457334 858.572,209.708 C861.310665,204.958666 862.68,198.805332 862.68,191.248 L862.68,144.968 L847.808,148.088 L847.808,152.56 L847.496,152.56 C845.832,149.717332 843.526668,147.516 840.58,145.956 C837.633332,144.396 834.461332,143.616 831.064,143.616 C826.141334,143.616 821.721334,144.812 817.804,147.204 C813.886668,149.596 810.836002,152.924 808.652,157.188 C806.468,161.452 805.376,166.288 805.376,171.696 C805.376,177.173334 806.485334,182.044 808.704,186.308 C810.922668,190.572 814.008,193.9 817.96,196.292 C821.912,198.684 826.418666,199.88 831.48,199.88 C838.552,199.88 843.96,197.037334 847.704,191.352 L848.016,191.352 L848.016,193.016 C848.016,199.464 846.698668,204.109334 844.064,206.952 C841.429332,209.794668 837.685332,211.216 832.832,211.216 C829.92,211.216 827.406666,210.626668 825.292,209.448 C823.177334,208.269332 821.288,206.536 819.624,204.248 L809.224,211.32 C811.373332,214.925334 814.476,217.785334 818.532,219.9 C822.588,222.014666 827.493334,223.072 833.248,223.072 Z M833.976,186.984 C829.954666,186.984 826.644,185.545334 824.044,182.668 C821.444,179.790666 820.144,176.133334 820.144,171.696 C820.144,167.258668 821.444,163.636 824.044,160.828 C826.644,158.02 829.954666,156.616 833.976,156.616 C837.997332,156.616 841.308,158.02 843.908,160.828 C846.508,163.636 847.808,167.258668 847.808,171.696 C847.808,176.133328 846.508,179.790661 843.908,182.668 C841.308,185.545334 837.997332,186.984 833.976,186.984 Z" id="title_home"></path>
            </g>
        </g>
    </g>
</svg>